<svg xmlns="http://www.w3.org/2000/svg" viewBox="0 0 144 144" width="144" height="144" fill="none">
  <title>OutbreakNow</title>
  <!-- pin centered in a square frame (transparent background) -->
  <g transform="translate(12 1)">
    <path d="M30 72 L90 72 L60 131 Z" fill="#f23b43"/>
    <circle cx="60" cy="54" r="42" stroke="#22c0ce" stroke-width="9"/>
    <mask id="on-virus-sq" maskUnits="userSpaceOnUse" x="0" y="0" width="120" height="144">
      <g stroke="#fff" fill="#fff" stroke-width="6.5" stroke-linecap="round">
        <line x1="60" y1="54" x2="85" y2="54"/>
        <line x1="60" y1="54" x2="77.68" y2="71.68"/>
        <line x1="60" y1="54" x2="60" y2="79"/>
        <line x1="60" y1="54" x2="42.32" y2="71.68"/>
        <line x1="60" y1="54" x2="35" y2="54"/>
        <line x1="60" y1="54" x2="42.32" y2="36.32"/>
        <line x1="60" y1="54" x2="60" y2="29"/>
        <line x1="60" y1="54" x2="77.68" y2="36.32"/>
      </g>
      <g fill="#fff">
        <circle cx="60" cy="54" r="15"/>
        <circle cx="85" cy="54" r="4.6"/>
        <circle cx="77.68" cy="71.68" r="4.6"/>
        <circle cx="60" cy="79" r="4.6"/>
        <circle cx="42.32" cy="71.68" r="4.6"/>
        <circle cx="35" cy="54" r="4.6"/>
        <circle cx="42.32" cy="36.32" r="4.6"/>
        <circle cx="60" cy="29" r="4.6"/>
        <circle cx="77.68" cy="36.32" r="4.6"/>
      </g>
      <g fill="#000">
        <circle cx="56" cy="49" r="3.1"/>
        <circle cx="65" cy="53" r="2.4"/>
        <circle cx="57" cy="59" r="2.4"/>
      </g>
    </mask>
    <rect x="0" y="0" width="120" height="144" fill="#22c0ce" mask="url(#on-virus-sq)"/>
  </g>
</svg>
