<svg width="30" height="30" viewBox="0 0 30 30" fill="none" xmlns="http://www.w3.org/2000/svg">
<path d="M0 15C0 6.71573 6.71573 0 15 0C23.2843 0 30 6.71573 30 15C30 23.2843 23.2843 30 15 30C6.71573 30 0 23.2843 0 15Z" fill="white"/>
<path d="M13.4655 7.65807C14.4657 7.4487 15.5105 7.44209 16.5337 7.65601C16.6664 8.52567 17.1786 9.32931 17.9998 9.80339C18.8209 10.2775 19.773 10.3193 20.5924 9.99935C21.2893 10.7785 21.806 11.6866 22.1248 12.6575C21.4389 13.2073 20.9998 14.0521 20.9998 14.9995C20.9998 15.9475 21.4394 16.7928 22.126 17.3425C21.9675 17.8228 21.7578 18.2943 21.4949 18.7495C21.232 19.2048 20.9287 19.6221 20.5919 19.9995C19.7725 19.6798 18.8207 19.7217 17.9998 20.1957C17.1793 20.6694 16.6672 21.4722 16.534 22.341C15.5338 22.5504 14.489 22.557 13.4658 22.3431C13.3331 21.4734 12.8209 20.6697 11.9998 20.1957C11.1786 19.7216 10.2265 19.6798 9.40704 19.9998C8.71018 19.2206 8.19349 18.3124 7.87473 17.3415C8.56059 16.7918 8.99976 15.9469 8.99976 14.9995C8.99976 14.0516 8.56008 13.2063 7.87354 12.6566C8.032 12.1762 8.2417 11.7048 8.50456 11.2495C8.76743 10.7942 9.07082 10.3769 9.40756 9.99955C10.2269 10.3192 11.1788 10.2774 11.9998 9.80339C12.8202 9.32969 13.3323 8.52695 13.4655 7.65807ZM14.9998 17.2495C16.2424 17.2495 17.2498 16.2422 17.2498 14.9995C17.2498 13.7569 16.2424 12.7495 14.9998 12.7495C13.7571 12.7495 12.7498 13.7569 12.7498 14.9995C12.7498 16.2422 13.7571 17.2495 14.9998 17.2495Z" fill="#2A4149"/>
</svg>
