<svg width="10" height="10" viewBox="0 0 10 10" fill="none" xmlns="http://www.w3.org/2000/svg">
<g clip-path="url(#clip0_1522_12065)">
<path d="M0.729492 4.16659C0.729492 2.32492 2.22283 0.833252 4.06491 0.833252H5.88408C7.75491 0.833252 9.27116 2.34992 9.27116 4.22075C9.27116 5.45409 8.60158 6.58742 7.52283 7.18325L4.16699 9.04159V7.50409H4.13908C2.26824 7.54575 0.729492 6.04159 0.729492 4.16659ZM4.06491 1.66659C2.68283 1.66659 1.56283 2.78742 1.56283 4.16659C1.56283 5.57075 2.71699 6.69992 4.12033 6.67075L4.26658 6.66659H5.00033V7.62492L7.11991 6.45409C7.93283 6.00409 8.43783 5.14992 8.43783 4.22075C8.43783 2.80825 7.29449 1.66659 5.88408 1.66659H4.06491Z" fill="#D2D2D2"/>
</g>
<defs>
<clipPath id="clip0_1522_12065">
<rect width="10" height="10" fill="white"/>
</clipPath>
</defs>
</svg>
