<svg width="10" height="10" viewBox="0 0 10 10" fill="none" xmlns="http://www.w3.org/2000/svg">
<path d="M6.95689 2.29157C6.44772 2.26657 5.84064 2.50407 5.33605 3.19157L5.00064 3.64573L4.6648 3.19157C4.1598 2.50407 3.5523 2.26657 3.04314 2.29157C2.52522 2.32073 2.06439 2.61657 1.83064 3.0874C1.60064 3.55407 1.56689 4.24573 2.03022 5.09573C2.47772 5.91657 3.3873 6.8749 5.00064 7.8499C6.61314 6.8749 7.5223 5.91657 7.9698 5.09573C8.43272 4.24573 8.39897 3.55407 8.16855 3.0874C7.9348 2.61657 7.47439 2.32073 6.95689 2.29157ZM8.70147 5.49573C8.13856 6.52907 7.03439 7.62907 5.21022 8.69157L5.00064 8.81657L4.79064 8.69157C2.96605 7.62907 1.86189 6.52907 1.29814 5.49573C0.73147 4.45407 0.710637 3.47073 1.08397 2.71657C1.45355 1.97073 2.18689 1.50407 3.00105 1.4624C3.68897 1.4249 4.40439 1.69573 5.00022 2.2999C5.59564 1.69573 6.31105 1.4249 6.99855 1.4624C7.81272 1.50407 8.54605 1.97073 8.91564 2.71657C9.28897 3.47073 9.26814 4.45407 8.70147 5.49573Z" fill="#D2D2D2"/>
</svg>
